<svg viewBox="0 0 607 607" id="svgContainer" xmlns="http://www.w3.org/2000/svg"><path d="M 0.131 57.750 C 0.210 92.401, 0.583 112.744, 1.062 108.609 C 4.940 75.195, 22.208 43.301, 47 23.765 C 53.677 18.503, 68.159 10.227, 75.569 7.438 C 82.050 4.998, 96.330 1.505, 103 0.728 C 104.925 0.504, 82.538 0.248, 53.250 0.160 L 0 0 0.131 57.750 M 503 0.526 C 503.825 0.688, 507.875 1.368, 512 2.039 C 548.798 8.021, 581.945 35.945, 597.425 74.002 C 600.667 81.971, 604.741 96.691, 605.896 104.609 C 606.444 108.363, 606.800 90.461, 606.878 55.250 L 607 0 554.250 0.116 C 525.237 0.180, 502.175 0.364, 503 0.526 M 216.045 179.076 C 200.598 182.160, 189.040 194.035, 185.944 210 C 184.045 219.794, 184.474 237.655, 186.779 244.784 C 192.487 262.434, 206.791 277.048, 223.486 282.287 C 228.881 283.979, 232.808 284.467, 240.500 284.402 C 252.849 284.297, 261.818 281.446, 271.469 274.559 C 281.913 267.107, 285.819 262.616, 292.396 250.500 C 296.454 243.026, 299.496 240.669, 304.258 241.308 C 309.313 241.986, 311.318 243.910, 315.743 252.331 C 329.888 279.248, 363.491 292.045, 389.650 280.476 C 396.081 277.632, 406.643 269.512, 410.824 264.198 C 415.519 258.229, 419.786 249.940, 421.477 243.500 C 423.471 235.905, 423.520 222.753, 421.592 212.756 C 418.958 199.095, 415.104 192.862, 405.092 186.063 C 393.233 178.009, 399.849 178.519, 305 178.343 C 258.525 178.257, 218.495 178.587, 216.045 179.076 M 222.491 186.954 C 203.528 188.704, 195.180 197.690, 193.185 218.500 C 191.540 235.669, 194.466 247.463, 203.011 258.111 C 209.414 266.090, 215.075 270.358, 223.529 273.581 C 235.661 278.207, 250.132 277.021, 263.366 270.315 C 269.822 267.043, 281.013 255.704, 283.969 249.439 C 289.083 238.599, 294.397 234.185, 302.962 233.663 C 311.527 233.140, 317.324 237.714, 323.412 249.796 C 329.867 262.607, 346.501 273.838, 362.270 276.031 C 376.159 277.963, 390.647 273.191, 400.267 263.516 C 407.044 256.699, 410.688 250.799, 413.186 242.597 C 414.987 236.681, 415.199 234.177, 414.667 225.097 C 413.948 212.809, 412.240 205.426, 409.046 200.791 C 405.765 196.032, 398.813 190.798, 392.758 188.530 C 387.706 186.638, 384.422 186.554, 309 186.388 C 265.825 186.293, 226.896 186.548, 222.491 186.954 M 235.168 204.603 C 222.756 210.789, 217.303 227.518, 223.419 240.654 C 227.300 248.990, 231.131 249.002, 237.462 240.697 C 249.796 224.520, 258.704 212.278, 259.306 210.678 C 260.353 207.899, 258.485 205.411, 254.009 203.620 C 247.963 201.201, 241.298 201.549, 235.168 204.603 M 354.429 204.381 C 344.863 208.835, 338.241 220.552, 339.434 230.917 C 340.142 237.075, 344.384 245.670, 347.148 246.547 C 350.363 247.567, 352.338 246.126, 358.473 238.281 C 367.918 226.206, 379 210.833, 379 209.807 C 379 205.693, 371.993 201.994, 364.230 202.010 C 361.375 202.016, 357.490 202.956, 354.429 204.381 M 62.500 229.491 C 61.950 229.675, 60.271 230.096, 58.768 230.427 C 54.591 231.347, 49.333 236.567, 47.315 241.797 C 43.045 252.862, 46.063 273.976, 54.419 291.500 C 67.719 319.392, 92.881 338.963, 126 347.177 C 135.010 349.412, 163.548 350.895, 172.297 349.583 C 176.362 348.973, 176.778 348.600, 179.391 343.218 C 180.918 340.073, 184.155 334.289, 186.584 330.364 C 189.013 326.439, 191 322.972, 191 322.660 C 191 320.281, 154.750 276.290, 149.267 272.014 C 147.745 270.828, 144.025 267.493, 141 264.603 C 128.959 253.101, 109.344 240.807, 94.500 235.457 C 91.750 234.466, 88.988 233.270, 88.363 232.799 C 85.376 230.549, 66.548 228.141, 62.500 229.491 M 527.267 230.054 C 524.939 230.514, 521.564 231.559, 519.767 232.377 C 517.970 233.194, 513.125 235.268, 509 236.986 C 486.848 246.208, 467.403 261.179, 446.635 285 C 432.942 300.705, 417 320.917, 417 322.571 C 417 322.932, 418.987 326.439, 421.416 330.364 C 423.845 334.289, 427.076 340.060, 428.595 343.190 L 431.357 348.879 437.748 349.563 C 455.801 351.497, 483.560 348.252, 496 342.755 C 515.922 333.951, 528.740 325.504, 537.776 315.226 C 546.915 304.831, 555.098 289.698, 558.988 276 C 561.723 266.366, 562.696 251.068, 561.017 244.071 C 559.451 237.542, 554.203 231.692, 548.500 230.116 C 543.931 228.854, 533.504 228.824, 527.267 230.054 M 105.160 367.720 C 100.662 369.898, 96.278 375.253, 94.948 380.195 C 91.164 394.245, 103.514 409.878, 123.500 416.340 C 133.969 419.725, 152.225 420.240, 163.287 417.464 L 166 416.783 166.031 406.142 C 166.059 396.381, 166.742 388.639, 168.587 377.160 L 169.284 372.820 159.392 373.514 C 145.711 374.474, 121.965 371.359, 110.900 367.152 C 109.017 366.436, 107.500 366.586, 105.160 367.720 M 493 368.176 C 479.894 371.858, 468.721 373.340, 453.669 373.391 L 438.838 373.441 439.460 376.470 C 440.613 382.088, 441.825 393.430, 442.533 405.220 C 443.345 418.750, 442.447 417.791, 455.387 418.945 C 485.209 421.605, 510.886 407.382, 512.717 387.187 C 513.299 380.763, 511.854 376.743, 507.136 371.661 C 502.466 366.631, 500.353 366.110, 493 368.176 M 0.160 545.250 L 0 607 54.250 606.878 C 89.202 606.799, 106.366 606.449, 102.500 605.891 C 79.356 602.556, 57.179 591.348, 39.705 574.154 C 17.331 552.137, 4.327 523.101, 0.674 487 C 0.479 485.075, 0.248 511.288, 0.160 545.250 M 605.627 496.339 C 603.653 515.604, 593.674 541.503, 582.062 557.500 C 563.200 583.485, 534.130 601.622, 504.500 605.891 C 500.634 606.449, 517.798 606.799, 552.750 606.878 L 607 607 607 548.500 C 607 516.325, 606.837 490, 606.638 490 C 606.439 490, 605.984 492.852, 605.627 496.339" stroke="none" fill="#ffffff" fill-rule="evenodd"></path><path d="M 75.650 7.433 C 70.782 9.285, 66.282 11.347, 65.650 12.014 C 65.017 12.682, 65.939 12.503, 67.697 11.616 C 69.456 10.729, 74.856 8.662, 79.697 7.022 C 84.539 5.383, 87.600 4.047, 86.500 4.054 C 85.400 4.061, 80.517 5.581, 75.650 7.433 M 530 7.227 C 530.865 8.050, 542 12.911, 542 12.465 C 542 11.874, 535.028 8.416, 532 7.504 C 530.625 7.090, 529.725 6.966, 530 7.227 M 49.250 22.062 C 46.362 24.278, 44 26.310, 44 26.578 C 44 26.846, 46.475 25.196, 49.500 22.912 C 54.276 19.307, 55.728 17.952, 54.750 18.016 C 54.612 18.025, 52.138 19.846, 49.250 22.062 M 557 21.956 C 566.539 30.061, 569.351 32.194, 566.671 29.290 C 565.115 27.605, 561.740 24.787, 559.171 23.029 C 556.602 21.271, 555.625 20.788, 557 21.956 M 35 34.500 C 32.571 36.975, 30.809 39, 31.084 39 C 31.359 39, 33.571 36.975, 36 34.500 C 38.429 32.025, 40.191 30, 39.916 30 C 39.641 30, 37.429 32.025, 35 34.500 M 575 38.500 C 576.866 40.425, 578.617 42, 578.892 42 C 579.167 42, 577.866 40.425, 576 38.500 C 574.134 36.575, 572.383 35, 572.108 35 C 571.833 35, 573.134 36.575, 575 38.500 M 0.252 118.500 C 0.263 120.700, 0.468 121.482, 0.707 120.238 C 0.946 118.994, 0.937 117.194, 0.687 116.238 C 0.437 115.282, 0.241 116.300, 0.252 118.500 M 288.472 121.972 C 274.684 123.935, 254.717 131.161, 243.147 138.374 C 237.168 142.102, 221.115 155.085, 221.045 156.250 C 221.020 156.662, 258.350 157, 304 157 C 351.643 157, 387 156.622, 387 156.113 C 387 155.256, 376.442 146.348, 368.858 140.806 C 359.895 134.255, 340.790 126.285, 327.344 123.488 C 318.127 121.570, 297.064 120.748, 288.472 121.972 M 400 182.311 C 400 182.544, 401.913 183.975, 404.250 185.492 C 406.587 187.009, 409.652 189.206, 411.059 190.375 C 412.466 191.544, 411.957 190.925, 409.927 189 C 406.477 185.728, 400 181.364, 400 182.311 M 199.400 185.833 C 197.255 187.392, 194.825 189.529, 194 190.583 C 193.175 191.637, 194.086 191.150, 196.024 189.500 C 197.962 187.850, 200.662 185.736, 202.024 184.802 C 203.386 183.869, 204.230 183.081, 203.900 183.052 C 203.570 183.024, 201.545 184.275, 199.400 185.833 M 222.491 186.975 C 214.710 187.673, 207.634 190.060, 203.500 193.382 C 202.400 194.266, 204.231 193.608, 207.569 191.921 C 216.440 187.436, 224.079 187.062, 305.684 187.110 C 345.007 187.133, 377.409 186.924, 377.688 186.645 C 378.479 185.854, 231.499 186.166, 222.491 186.975 M 379.543 186.931 C 379.271 187.370, 381.896 187.959, 385.376 188.238 C 389.334 188.556, 393.725 189.738, 397.102 191.394 C 401.055 193.334, 401.832 193.518, 400.003 192.081 C 395.959 188.903, 380.698 185.062, 379.543 186.931 M 235.331 203.522 C 232.547 204.909, 229.422 207.018, 228.385 208.207 C 226.883 209.930, 227.223 209.830, 230.054 207.716 C 238.041 201.752, 246.899 200.409, 254.750 203.973 C 257.087 205.034, 259 205.677, 259 205.402 C 259 205.127, 257.087 204.034, 254.750 202.973 C 248.701 200.227, 241.537 200.430, 235.331 203.522 M 354.500 203.377 C 351.750 204.674, 348.377 207.032, 347.004 208.618 L 344.507 211.500 347.504 208.809 C 354.810 202.247, 365.577 200.263, 373.750 203.973 C 376.087 205.034, 378 205.677, 378 205.402 C 378 205.127, 376.087 204.034, 373.750 202.973 C 367.888 200.312, 360.679 200.464, 354.500 203.377 M 252.437 220.671 C 250.897 222.690, 250.148 224.027, 250.772 223.641 C 252.052 222.850, 256.381 217, 255.687 217 C 255.440 217, 253.977 218.652, 252.437 220.671 M 88.500 232.762 C 89.050 233.261, 91.750 234.479, 94.500 235.468 C 97.250 236.458, 102.650 238.818, 106.500 240.713 C 110.350 242.608, 113.050 243.705, 112.500 243.151 C 111.950 242.596, 109.165 240.976, 106.312 239.550 C 100.071 236.431, 87.093 231.485, 88.500 232.762 M 512.471 234.420 C 506.066 236.887, 496 241.775, 496 242.419 C 496 242.630, 500.387 240.825, 505.750 238.407 C 511.113 235.988, 516.036 234.008, 516.691 234.005 C 517.346 234.002, 518.160 233.550, 518.500 233 C 519.274 231.748, 519.622 231.666, 512.471 234.420 M 291.684 237.250 C 289.876 239.037, 289.321 239.783, 290.449 238.906 C 291.577 238.030, 293.613 236.567, 294.973 235.656 C 296.332 234.745, 296.888 234, 296.208 234 C 295.527 234, 293.492 235.463, 291.684 237.250 M 313.155 236.459 C 315.145 237.812, 317.749 240.174, 318.942 241.709 C 320.423 243.615, 320.778 243.812, 320.062 242.328 C 318.904 239.930, 312.124 234, 310.540 234 C 309.988 234, 311.164 235.107, 313.155 236.459 M 297.757 243.250 C 296.462 244.488, 296.213 244.866, 297.204 244.092 C 298.196 243.318, 300.693 242.357, 302.753 241.957 C 306.484 241.233, 306.486 241.229, 303.306 241.115 C 301.241 241.041, 299.279 241.795, 297.757 243.250 M 121 248.356 C 121 248.622, 124.263 251.206, 128.250 254.098 C 132.238 256.990, 134.935 258.664, 134.245 257.819 C 132.807 256.059, 121 247.623, 121 248.356 M 478.087 253.996 C 473.639 257.294, 470 260.217, 470 260.492 C 470 260.767, 473.712 258.246, 478.250 254.891 C 487.478 248.067, 487.561 248, 486.753 248 C 486.434 248, 482.534 250.698, 478.087 253.996 M 290.880 253.250 C 290.225 254.488, 289.036 256.625, 288.239 258 C 286.848 260.398, 286.857 260.419, 288.471 258.500 C 290.464 256.130, 293.261 251, 292.561 251 C 292.291 251, 291.535 252.012, 290.880 253.250 M 324.824 252.500 C 325.412 253.600, 327.760 256.525, 330.042 259 L 334.190 263.500 329.909 258 C 324.591 251.169, 323.457 249.943, 324.824 252.500 M 562.252 254.500 C 562.263 256.700, 562.468 257.482, 562.707 256.238 C 562.946 254.994, 562.937 253.194, 562.687 252.238 C 562.437 251.282, 562.241 252.300, 562.252 254.500 M 137 260.385 C 137 260.935, 143.613 267.211, 150.250 272.959 C 157.330 279.091, 153.997 275.322, 145.500 267.587 C 140.825 263.331, 137 260.090, 137 260.385 M 459.124 270.681 L 451.500 278.361 459 271.486 C 463.125 267.704, 466.928 264.248, 467.450 263.805 C 467.972 263.362, 468.028 263, 467.574 263 C 467.120 263, 463.317 266.456, 459.124 270.681 M 267.646 266.595 C 265.546 268.022, 261.504 270.279, 258.664 271.610 C 255.824 272.942, 254.625 273.741, 256 273.386 C 259.315 272.531, 266.879 268.571, 270 266.058 C 273.538 263.208, 272.170 263.520, 267.646 266.595 M 328.052 269.089 C 332.325 273.228, 340 278.617, 340 277.479 C 340 277.229, 338.149 275.856, 335.886 274.428 C 333.623 273, 329.869 270.181, 327.543 268.165 C 323.883 264.994, 323.952 265.118, 328.052 269.089 M 337.027 265.551 C 338.571 267.431, 354.846 275.487, 355.592 274.741 C 355.829 274.504, 353.061 273.051, 349.441 271.513 C 345.821 269.974, 341.216 267.600, 339.207 266.236 C 336.741 264.563, 336.033 264.341, 337.027 265.551 M 396.640 266.068 C 395.194 267.206, 391.421 269.485, 388.255 271.133 C 385.090 272.781, 383.625 273.818, 385 273.437 C 388.909 272.354, 401.963 264.097, 399.885 264.022 C 399.547 264.010, 398.086 264.931, 396.640 266.068 M 211.406 266.878 C 213.377 269.074, 223.849 274.485, 224.625 273.708 C 224.867 273.467, 223.587 272.683, 221.782 271.966 C 219.977 271.250, 216.475 269.334, 214 267.709 C 210.616 265.487, 209.973 265.281, 211.406 266.878 M 202.392 270.425 C 205.082 272.986, 208.232 275.538, 209.392 276.096 C 210.551 276.654, 210.150 276.074, 208.500 274.807 C 206.850 273.540, 203.700 270.988, 201.500 269.136 C 198.865 266.918, 199.170 267.358, 202.392 270.425 M 298.949 271.566 C 293.285 278.908, 282.589 288.687, 275.702 292.821 C 272.659 294.647, 266.869 297.332, 262.835 298.787 C 256.248 301.162, 254.073 301.435, 241.500 301.466 C 225.709 301.504, 218.083 299.773, 206.033 293.413 C 202.476 291.536, 199.227 290, 198.814 290 C 197.609 290, 204.844 301.840, 211.069 310.055 C 228.284 332.775, 256.307 349.031, 286.153 353.612 C 298.459 355.500, 317.317 354.994, 329.409 352.451 C 338.573 350.524, 353.829 344.616, 363.449 339.269 C 379.097 330.572, 395.335 314.263, 405.470 297.065 C 409.931 289.495, 410.483 287.384, 407.256 290.225 C 403.764 293.301, 394.485 297.246, 385.211 299.598 C 356.398 306.907, 328.148 296.982, 309.988 273.169 C 306.981 269.226, 304.233 266, 303.882 266 C 303.531 266, 301.311 268.505, 298.949 271.566 M 406.497 268.779 C 404.845 270.276, 401.920 272.774, 399.997 274.331 C 398.074 275.888, 397.449 276.694, 398.608 276.122 C 400.745 275.067, 410.920 266.088, 410 266.069 C 409.725 266.063, 408.149 267.283, 406.497 268.779 M 275.500 271.649 C 272.489 274.340, 272.263 274.713, 274.589 273.158 C 277.353 271.310, 280.829 267.941, 279.872 268.038 C 279.668 268.058, 277.700 269.683, 275.500 271.649 M 162.371 286.291 C 165.051 289.431, 167.455 292, 167.715 292 C 168.386 292, 160.057 282.152, 158.659 281.294 C 158.022 280.902, 159.692 283.151, 162.371 286.291 M 445.932 284.750 C 440.206 290.930, 437.623 294, 438.148 294 C 438.421 294, 441.229 291.075, 444.387 287.500 C 450.564 280.508, 451.645 278.584, 445.932 284.750 M 226.841 284.038 C 230.488 285.541, 242.022 286.209, 247 285.206 C 250.935 284.413, 250.369 284.312, 242.500 284.399 C 237.550 284.455, 231.475 284.179, 229 283.787 C 225.707 283.265, 225.128 283.333, 226.841 284.038 M 354.500 283.974 C 356.410 284.820, 362.785 285.391, 361.917 284.639 C 361.688 284.441, 359.475 284.011, 357 283.683 C 353.995 283.286, 353.165 283.383, 354.500 283.974 M 365.768 285.725 C 367.565 285.947, 370.265 285.943, 371.768 285.715 C 373.271 285.486, 371.800 285.304, 368.500 285.310 C 365.200 285.315, 363.971 285.502, 365.768 285.725 M 64.437 309.329 C 65.977 311.348, 67.440 313, 67.687 313 C 68.381 313, 64.052 307.150, 62.772 306.359 C 62.148 305.973, 62.897 307.310, 64.437 309.329 M 186.057 315.500 C 186.798 316.600, 188.271 318.490, 189.329 319.699 C 190.417 320.942, 190.986 322.595, 190.638 323.501 C 190.281 324.431, 190.438 324.847, 191.011 324.493 C 192.730 323.431, 192.032 321.619, 188.317 317.500 C 186.332 315.300, 185.315 314.400, 186.057 315.500 M 70.500 316.896 C 72.791 319.561, 82 327.425, 82 326.715 C 82 326.456, 78.963 323.617, 75.250 320.406 C 71.537 317.196, 69.400 315.616, 70.500 316.896 M 530.500 322.109 C 523.168 328.332, 521.530 330.005, 525.500 327.217 C 529.144 324.659, 537.696 317.099, 537 317.052 C 536.725 317.033, 533.800 319.309, 530.500 322.109 M 417.655 319.829 C 415.779 321.901, 415.537 323.596, 416.989 324.493 C 417.560 324.846, 417.720 324.434, 417.367 323.515 C 417.031 322.639, 417.555 321.044, 418.534 319.963 C 419.511 318.883, 420.085 318, 419.810 318 C 419.535 318, 418.565 318.823, 417.655 319.829 M 510.500 335.929 C 506.650 337.975, 501.965 340.180, 500.088 340.829 C 498.211 341.478, 496.920 342.253, 497.218 342.551 C 497.867 343.200, 513.647 335.916, 516.500 333.651 C 519.383 331.363, 518.364 331.750, 510.500 335.929 M 93 334.495 C 93 335.165, 105.122 341.211, 105.569 340.764 C 105.771 340.563, 103.025 338.962, 99.468 337.208 C 95.911 335.454, 93 334.233, 93 334.495 M 205.199 345.744 C 201.948 350.348, 197.399 360.069, 194.666 368.248 C 192.231 375.537, 189 390.171, 189 393.912 C 189 397.488, 213.776 409.918, 235.351 417.164 C 270.646 429.018, 317.977 430.733, 358.008 421.609 C 375.237 417.682, 402.449 406.618, 414.324 398.712 L 419.149 395.500 418.518 389.689 C 417.092 376.556, 410.958 358.529, 404.460 348.369 L 400.860 342.743 397.680 345.730 C 393.217 349.923, 381.809 358.442, 376.463 361.575 C 370.544 365.043, 354.060 372.272, 345.950 374.955 C 329.726 380.322, 301.410 382.581, 283.692 379.920 C 257.541 375.993, 232.721 364.751, 212.822 347.819 L 207.144 342.988 205.199 345.744 M 470 349.187 C 466.975 349.711, 457.094 349.980, 448.043 349.784 C 437.229 349.550, 432.942 349.725, 435.543 350.293 C 440.766 351.435, 472.802 350.567, 476 349.197 C 479 347.913, 477.370 347.910, 470 349.187 M 136.500 350.152 C 138.700 350.555, 147.700 350.849, 156.500 350.806 C 165.300 350.763, 171.600 350.586, 170.500 350.412 C 166.131 349.723, 132.766 349.467, 136.500 350.152 M 105.154 366.722 C 103.534 367.507, 101.150 369.319, 99.855 370.749 C 97.926 372.880, 98.243 372.767, 101.606 370.124 C 106.546 366.241, 107.307 366.185, 117.500 368.942 C 127.741 371.713, 144.527 373.996, 153.500 373.838 C 159.360 373.734, 158.650 373.581, 149.142 372.898 C 136.843 372.013, 125.363 370.094, 114.799 367.158 C 108.859 365.507, 107.765 365.458, 105.154 366.722 M 495 366.673 C 489.091 368.454, 477.124 370.864, 469 371.910 C 464.932 372.433, 463.810 372.793, 466 372.870 C 470.390 373.025, 484.396 370.600, 493.159 368.167 C 500.521 366.124, 501.305 366.306, 506.998 371.382 L 510.496 374.500 507.498 371.161 C 502.824 365.954, 500.343 365.064, 495 366.673 M 162 372.395 C 162 372.612, 163.800 372.962, 166 373.171 C 168.200 373.381, 170 373.203, 170 372.776 C 170 372.349, 168.200 372, 166 372 C 163.800 372, 162 372.178, 162 372.395 M 438 372.799 C 438 373.239, 439.575 373.415, 441.500 373.190 C 443.425 372.965, 445 372.605, 445 372.391 C 445 372.176, 443.425 372, 441.500 372 C 439.575 372, 438 372.360, 438 372.799 M 450.776 373.733 C 453.128 373.945, 456.728 373.942, 458.776 373.727 C 460.824 373.512, 458.900 373.339, 454.500 373.343 C 450.100 373.346, 448.424 373.522, 450.776 373.733 M 503.946 404.750 L 500.500 408.500 504.250 405.054 C 507.740 401.846, 508.460 401, 507.696 401 C 507.529 401, 505.842 402.688, 503.946 404.750 M 102.718 405.057 C 104.488 406.894, 106.154 408.179, 106.422 407.912 C 106.689 407.645, 105.241 406.141, 103.204 404.571 L 99.500 401.716 102.718 405.057 M 442.193 411.133 C 442.016 417.229, 442.182 417.821, 444.250 418.433 C 449.231 419.907, 464.881 420.693, 471.912 419.822 C 479.505 418.881, 489.553 415.858, 491.442 413.945 C 492.024 413.355, 490.434 413.755, 487.910 414.832 C 476.839 419.558, 456.796 420.739, 444.796 417.373 C 443.480 417.003, 443.012 415.488, 442.739 410.697 L 442.385 404.500 442.193 411.133 M 115.534 414.054 C 116.511 415.635, 128.856 419.071, 136.822 419.980 C 145.322 420.949, 159.798 419.888, 164.166 417.976 C 166.275 417.052, 166.215 417.011, 163.537 417.549 C 149.291 420.413, 132.563 419.623, 121.368 415.560 C 117.891 414.298, 115.265 413.620, 115.534 414.054 M 191 444.169 C 191 446.237, 197.019 463.106, 199.588 468.237 C 207.695 484.431, 221.931 500.987, 236.500 511.162 C 256.899 525.409, 278.441 532.100, 304 532.127 C 348.735 532.175, 387.371 508.773, 407.156 469.646 C 410.950 462.141, 417.455 444.122, 416.658 443.324 C 416.449 443.116, 410.007 446.294, 402.341 450.387 C 384.252 460.048, 360.062 468.286, 340.500 471.447 C 323.607 474.177, 297.203 474.869, 281 473.007 C 256.338 470.172, 226.450 461.266, 205.305 450.450 C 197.437 446.426, 191 443.600, 191 444.169 M 0.272 480 C 0.272 482.475, 0.467 483.488, 0.706 482.250 C 0.944 481.012, 0.944 478.988, 0.706 477.750 C 0.467 476.512, 0.272 477.525, 0.272 480 M 33 567.500 C 34.866 569.425, 36.617 571, 36.892 571 C 37.167 571, 35.866 569.425, 34 567.500 C 32.134 565.575, 30.383 564, 30.108 564 C 29.833 564, 31.134 565.575, 33 567.500 M 44.450 578.854 C 45.523 580.089, 48.673 582.677, 51.450 584.605 C 56.592 588.174, 54.658 586.265, 46.839 580.054 C 44.452 578.158, 43.378 577.618, 44.450 578.854 M 534.977 595.827 C 531.940 597.297, 528.115 599.046, 526.477 599.712 C 524.131 600.668, 524.030 600.808, 526 600.374 C 529.154 599.680, 541 594.293, 541 593.553 C 541 592.860, 541.479 592.680, 534.977 595.827 M 70 595.998 C 74.091 598.236, 88.936 603.398, 89.541 602.793 C 89.768 602.565, 86.702 601.338, 82.727 600.066 C 78.752 598.793, 73.830 596.908, 71.790 595.876 C 66.938 593.423, 65.473 593.522, 70 595.998" stroke="none" fill="#f8e1a4" fill-rule="evenodd"></path><path d="M 101 1.526 C 89.932 3.262, 72.473 9.032, 63.271 13.995 C 27.502 33.289, 4.701 70.145, 1.015 114.625 C -0.336 130.939, -0.328 466.142, 1.025 483.871 C 3.117 511.299, 10.164 533.314, 23.405 553.794 C 41.345 581.541, 70.812 600.458, 104 605.535 C 118.287 607.720, 490.069 607.713, 503.500 605.527 C 551.916 597.647, 589.046 562.577, 601.989 512.500 C 607.632 490.665, 607.500 495.819, 607.500 298 L 607.500 115.500 605.287 103.500 C 596.245 54.459, 567.781 19.999, 524.654 5.882 C 505.994 -0.226, 514.790 0.003, 303 0.103 C 147.065 0.176, 107.850 0.452, 101 1.526 M 288.472 121.972 C 274.684 123.935, 254.717 131.161, 243.147 138.374 C 237.168 142.102, 221.115 155.085, 221.045 156.250 C 221.020 156.662, 258.350 157, 304 157 C 351.643 157, 387 156.622, 387 156.113 C 387 155.256, 376.442 146.348, 368.858 140.806 C 359.895 134.255, 340.790 126.285, 327.344 123.488 C 318.127 121.570, 297.064 120.748, 288.472 121.972 M 0.489 299 C 0.489 396.625, 0.606 436.563, 0.750 387.750 C 0.893 338.938, 0.893 259.063, 0.750 210.250 C 0.606 161.438, 0.489 201.375, 0.489 299 M 213.746 179.086 C 208.889 180.230, 201.130 184.179, 197.141 187.535 C 192.862 191.135, 187.457 201.220, 185.905 208.500 C 185.201 211.800, 184.603 220.125, 184.576 227 C 184.518 241.454, 186.416 248.692, 192.894 258.714 C 200.675 270.753, 208.324 277.010, 221.530 282.138 C 235.919 287.725, 248.211 286.907, 264 279.313 C 271.819 275.552, 274.848 273.380, 281.121 267.034 C 286.390 261.705, 289.716 257.285, 291.898 252.715 C 295.522 245.120, 298.901 242, 303.500 242 C 308.022 242, 311.373 245.020, 315.484 252.801 C 322.687 266.431, 332.775 275.194, 348.846 281.781 C 356.835 285.055, 358.307 285.330, 368 285.361 C 377.384 285.390, 379.303 285.074, 386.056 282.379 C 399.878 276.864, 407.283 270.818, 415.183 258.596 C 420.915 249.727, 423.206 241.471, 423.258 229.500 C 423.383 200.597, 413.742 185.276, 391.744 179.420 C 387.440 178.274, 371.357 178.040, 302 178.112 C 255.525 178.161, 215.811 178.599, 213.746 179.086 M 222.296 187.998 C 212.612 188.851, 204.296 192.435, 200.522 197.383 C 195.556 203.893, 194.032 209.097, 193.344 221.885 C 192.530 237.033, 194.143 243.898, 200.975 254.364 C 207.200 263.900, 213.124 268.547, 225.171 273.344 C 245.981 281.630, 273.187 269.439, 284.888 246.583 C 290.512 235.598, 296.239 232.091, 306.637 233.263 C 312.863 233.964, 317.642 238.096, 322.470 246.949 C 328.424 257.867, 336.029 265.206, 346.448 270.088 C 356.810 274.944, 357.459 275.122, 367.069 275.722 C 373.331 276.114, 375.851 275.773, 381.671 273.749 C 398.642 267.847, 409.391 256.297, 413.635 239.404 C 415.141 233.407, 415.207 231.268, 414.173 222.032 C 412.685 208.739, 411.707 205.277, 407.996 200.153 C 404.612 195.482, 399.621 192.032, 392.429 189.391 C 387.843 187.707, 382.040 187.571, 309 187.429 C 265.825 187.345, 226.808 187.601, 222.296 187.998 M 235.168 203.603 C 224.698 208.821, 218.474 222.335, 220.981 234.410 C 222.538 241.908, 225.706 246.416, 229.693 246.807 C 232.497 247.082, 233.387 246.406, 238.256 240.307 C 246.652 229.789, 257.603 215.110, 258.998 212.504 C 263.818 203.498, 247.563 197.427, 235.168 203.603 M 354.429 203.381 C 342.528 208.923, 336.366 223.931, 340.438 237.461 C 343.224 246.719, 349.141 249.633, 354.222 244.250 C 359.877 238.259, 379 211.709, 379 209.848 C 379 206.459, 377.212 204.302, 373.009 202.620 C 367.230 200.308, 360.431 200.586, 354.429 203.381 M 56.421 230.896 C 47.901 234.766, 44.392 243.615, 45.291 258.965 C 47.611 298.597, 77.023 333.329, 118.600 345.534 C 135.179 350.401, 139.228 351.002, 155.386 350.989 C 175.468 350.973, 176.226 350.785, 178.934 345.143 C 181.008 340.822, 188.665 327.554, 191.202 323.886 C 192.127 322.549, 189.617 318.903, 176.608 302.682 C 160.368 282.432, 146.479 267.668, 134.395 257.808 C 119.737 245.848, 98.574 234.724, 82.540 230.551 C 74.199 228.380, 61.594 228.547, 56.421 230.896 M 524.500 230.429 C 510.701 233.903, 490.720 244.240, 475.729 255.661 C 467.138 262.206, 447.993 281.663, 437.896 294.112 C 427.757 306.612, 416 321.900, 416 322.584 C 416 322.857, 417.012 324.444, 418.250 326.110 C 419.488 327.776, 422.975 333.700, 426 339.276 C 431.232 348.919, 431.695 349.455, 435.500 350.280 C 437.700 350.757, 446.925 350.957, 456 350.724 C 470.753 350.346, 473.717 349.961, 484 347.096 C 517.490 337.763, 539.534 320.552, 552.646 293.500 C 558.487 281.448, 562.136 267.057, 562.280 255.500 C 562.451 241.790, 559.229 234.371, 551.599 230.905 C 546.710 228.685, 532.424 228.434, 524.500 230.429 M 298.949 271.566 C 293.285 278.908, 282.589 288.687, 275.702 292.821 C 272.659 294.647, 266.869 297.332, 262.835 298.787 C 256.248 301.162, 254.073 301.435, 241.500 301.466 C 225.709 301.504, 218.083 299.773, 206.033 293.413 C 202.476 291.536, 199.227 290, 198.814 290 C 197.609 290, 204.844 301.840, 211.069 310.055 C 228.284 332.775, 256.307 349.031, 286.153 353.612 C 298.459 355.500, 317.317 354.994, 329.409 352.451 C 338.573 350.524, 353.829 344.616, 363.449 339.269 C 379.097 330.572, 395.335 314.263, 405.470 297.065 C 409.931 289.495, 410.483 287.384, 407.256 290.225 C 403.764 293.301, 394.485 297.246, 385.211 299.598 C 356.398 306.907, 328.148 296.982, 309.988 273.169 C 306.981 269.226, 304.233 266, 303.882 266 C 303.531 266, 301.311 268.505, 298.949 271.566 M 205.199 345.744 C 201.948 350.348, 197.399 360.069, 194.666 368.248 C 192.231 375.537, 189 390.171, 189 393.912 C 189 397.488, 213.776 409.918, 235.351 417.164 C 270.646 429.018, 317.977 430.733, 358.008 421.609 C 375.237 417.682, 402.449 406.618, 414.324 398.712 L 419.149 395.500 418.518 389.689 C 417.092 376.556, 410.958 358.529, 404.460 348.369 L 400.860 342.743 397.680 345.730 C 393.217 349.923, 381.809 358.442, 376.463 361.575 C 370.544 365.043, 354.060 372.272, 345.950 374.955 C 329.726 380.322, 301.410 382.581, 283.692 379.920 C 257.541 375.993, 232.721 364.751, 212.822 347.819 L 207.144 342.988 205.199 345.744 M 105.171 366.751 C 92.459 373.328, 90.456 389.420, 100.681 402.826 C 103.998 407.175, 115.427 414.566, 122.705 417.071 C 130.752 419.839, 143.481 421.086, 152.824 420.020 C 166.960 418.408, 165.600 420.106, 166.316 403.180 C 166.861 390.311, 167.733 382.515, 169.558 374.202 L 170.062 371.904 160.233 372.581 C 148.202 373.410, 133.555 371.830, 118.733 368.106 C 109.056 365.674, 107.545 365.523, 105.171 366.751 M 493 367.176 C 479.626 370.934, 468.723 372.379, 453.294 372.440 C 438.612 372.498, 438.104 372.569, 438.558 374.500 C 440.433 382.472, 441.102 388.446, 441.659 402.186 L 442.294 417.871 446.926 418.982 C 453.284 420.508, 470.226 420.548, 477.500 419.056 C 485.363 417.442, 496.614 411.805, 502.840 406.359 C 514.683 395.999, 516.516 380.765, 507.136 370.661 C 502.466 365.631, 500.353 365.110, 493 367.176 M 191 444.169 C 191 446.237, 197.019 463.106, 199.588 468.237 C 207.695 484.431, 221.931 500.987, 236.500 511.162 C 256.899 525.409, 278.441 532.100, 304 532.127 C 348.735 532.175, 387.371 508.773, 407.156 469.646 C 410.950 462.141, 417.455 444.122, 416.658 443.324 C 416.449 443.116, 410.007 446.294, 402.341 450.387 C 384.252 460.048, 360.062 468.286, 340.500 471.447 C 323.607 474.177, 297.203 474.869, 281 473.007 C 256.338 470.172, 226.450 461.266, 205.305 450.450 C 197.437 446.426, 191 443.600, 191 444.169" stroke="none" fill="#104c8f" fill-rule="evenodd"></path></svg>